<svg width="44" height="50" viewBox="0 0 44 50" fill="none" xmlns="http://www.w3.org/2000/svg">
<rect width="44" height="50" fill="#E5E5E5"/>
<g clip-path="url(#clip0_280_37)">
<rect width="1920" height="4870" transform="translate(-1608 -2300)" fill="#020A31"/>
<g filter="url(#filter0_d_280_37)">
<path d="M-1649 -198C-1649 -529.371 -1380.37 -798 -1049 -798H-247C84.3708 -798 353 -529.371 353 -198V2.00001C353 57.2285 308.228 102 253 102H-1549C-1604.23 102 -1649 57.2285 -1649 2V-198Z" fill="url(#paint0_linear_280_37)"/>
</g>
<g filter="url(#filter1_d_280_37)">
<rect x="-1368" y="-837" width="1440" height="982" rx="20" fill="white"/>
</g>
<path d="M19.5 1.44338C21.047 0.550212 22.953 0.550212 24.5 1.44338L41.1506 11.0566C42.6976 11.9498 43.6506 13.6004 43.6506 15.3868V34.6132C43.6506 36.3996 42.6976 38.0502 41.1506 38.9434L24.5 48.5566C22.953 49.4498 21.047 49.4498 19.5 48.5566L2.84937 38.9434C1.30236 38.0502 0.349365 36.3996 0.349365 34.6133V15.3868C0.349365 13.6004 1.30236 11.9498 2.84936 11.0566L19.5 1.44338Z" fill="url(#paint1_linear_280_37)"/>
<path d="M19.625 6.65988C21.0947 5.81138 22.9053 5.81138 24.375 6.65988L36.6955 13.7731C38.1652 14.6216 39.0705 16.1897 39.0705 17.8868V32.1132C39.0705 33.8103 38.1652 35.3784 36.6955 36.2269L24.375 43.3401C22.9053 44.1886 21.0947 44.1886 19.625 43.3401L7.30449 36.2269C5.83484 35.3784 4.92949 33.8103 4.92949 32.1132V17.8868C4.92949 16.1897 5.83484 14.6216 7.30449 13.7731L19.625 6.65988Z" fill="white" stroke="white" stroke-width="0.5"/>
<g clip-path="url(#clip1_280_37)">
<path d="M16.8534 24.4097C16.8001 25.4126 17.5134 26.2712 18.4401 26.3289C18.4734 26.3289 18.5067 26.3289 18.5401 26.3289C19.4734 26.3289 20.2267 25.5136 20.2201 24.5035C20.2201 23.4934 19.4667 22.6781 18.5334 22.6854C17.6401 22.6854 16.9001 23.4429 16.8534 24.4097Z" fill="#0033AD"/>
<path d="M10.5734 23.9407C10.2734 23.9191 10.0134 24.1716 10.0001 24.4963C9.98674 24.821 10.2134 25.1024 10.5134 25.1168C10.8134 25.1384 11.0667 24.8859 11.0867 24.5612C11.1067 24.2366 10.8734 23.9624 10.5734 23.9407Z" fill="#0033AD"/>
<path d="M16.7468 13.8326C17.0135 13.6883 17.1201 13.3275 16.9868 13.0389C16.8535 12.7503 16.5201 12.6349 16.2535 12.7792C15.9868 12.9235 15.8801 13.277 16.0135 13.5656C16.1468 13.8614 16.4735 13.9841 16.7468 13.8326C16.7401 13.8326 16.7468 13.8326 16.7468 13.8326Z" fill="#0033AD"/>
<path d="M18.4534 17.0576C18.8667 16.834 19.0334 16.2856 18.8267 15.8383C18.6201 15.391 18.1134 15.2106 17.7001 15.4343C17.2867 15.6579 17.1201 16.2063 17.3267 16.6536C17.5334 17.1009 18.0401 17.2813 18.4534 17.0576Z" fill="#0033AD"/>
<path d="M12.7068 19.2727C13.0268 19.4964 13.4534 19.4026 13.6668 19.0563C13.8734 18.71 13.7868 18.2482 13.4668 18.0173C13.1468 17.7936 12.7201 17.8874 12.5068 18.2338C12.2934 18.5801 12.3868 19.0491 12.7068 19.2727Z" fill="#0033AD"/>
<path d="M13.7267 23.6162C13.26 23.5873 12.8667 23.9697 12.84 24.4747C12.8134 24.9798 13.1667 25.4055 13.6334 25.4343C14.1 25.4632 14.4934 25.0808 14.52 24.5758C14.5467 24.0779 14.1934 23.645 13.7267 23.6162Z" fill="#0033AD"/>
<path d="M12.8001 29.7272C12.4601 29.9148 12.3201 30.3622 12.4935 30.7373C12.6668 31.1053 13.0801 31.2568 13.4268 31.0692C13.7668 30.8816 13.9068 30.4343 13.7335 30.0591C13.5601 29.6912 13.1401 29.5397 12.8001 29.7272Z" fill="#0033AD"/>
<path d="M16.0669 21.733C16.5269 22.0577 17.1402 21.9206 17.4335 21.4228C17.7335 20.9249 17.6069 20.2612 17.1469 19.9437C16.6869 19.619 16.0735 19.7561 15.7802 20.2539C15.4802 20.7446 15.6069 21.4083 16.0669 21.733Z" fill="#0033AD"/>
<path d="M26.4333 16.9855C26.82 17.2597 27.3467 17.1443 27.6 16.7258C27.8533 16.3073 27.7467 15.7373 27.36 15.4632C26.9733 15.189 26.4467 15.3044 26.1933 15.7229C25.9333 16.1486 26.04 16.7114 26.4333 16.9855Z" fill="#0033AD"/>
<path d="M28.1533 13.7749C28.4067 13.9552 28.74 13.8759 28.9066 13.6017C29.0733 13.3275 29 12.9668 28.7467 12.7864C28.4933 12.606 28.16 12.6854 27.9933 12.9524C27.8333 13.2265 27.9067 13.5945 28.1533 13.7749Z" fill="#0033AD"/>
<path d="M26.5601 22.671C25.6334 22.6133 24.8334 23.3853 24.7867 24.3882C24.7334 25.3911 25.4467 26.2569 26.3734 26.3074C26.4067 26.3074 26.4401 26.3074 26.4667 26.3074C27.3934 26.3074 28.1467 25.4921 28.1467 24.482C28.1534 23.5224 27.4534 22.7215 26.5601 22.671Z" fill="#0033AD"/>
<path d="M19.0067 21.6032C19.2934 22.2165 19.8734 22.6061 20.5134 22.6061C21.4401 22.6061 22.1934 21.7908 22.1934 20.7807C22.1934 20.4993 22.1334 20.2179 22.0134 19.9582C21.5934 19.0563 20.5801 18.6955 19.7534 19.1501C18.9201 19.6118 18.5867 20.7085 19.0067 21.6032Z" fill="#0033AD"/>
<path d="M32.2001 19.2726C32.5401 19.085 32.6734 18.6305 32.5001 18.2625C32.3267 17.8946 31.9067 17.7503 31.5667 17.9379C31.2267 18.1255 31.0934 18.5728 31.2601 18.9407C31.4401 19.3087 31.8534 19.4602 32.2001 19.2726Z" fill="#0033AD"/>
<path d="M27.9335 19.8499C27.4468 20.1168 27.2468 20.759 27.4935 21.2857C27.7402 21.8124 28.3335 22.0288 28.8202 21.7618C29.3068 21.4949 29.5068 20.8528 29.2602 20.3261C29.0135 19.7994 28.4202 19.5901 27.9335 19.8499Z" fill="#0033AD"/>
<path d="M22.4334 13.5007C22.8134 13.5223 23.14 13.2049 23.1667 12.7936C23.1934 12.3824 22.8934 12.0288 22.5134 12C22.1334 11.9783 21.8067 12.2886 21.78 12.6998C21.76 13.1183 22.0534 13.4718 22.4334 13.5007Z" fill="#0033AD"/>
<path d="M22.4267 18.2121C22.9734 18.2482 23.4401 17.7936 23.4667 17.202C23.5001 16.6104 23.0801 16.1053 22.5334 16.0765C21.9867 16.0404 21.5201 16.4949 21.4934 17.0866C21.4667 17.6782 21.8801 18.1833 22.4267 18.2121Z" fill="#0033AD"/>
<path d="M17.0668 29.15C17.5534 28.8831 17.7534 28.2409 17.5067 27.7142C17.2601 27.1875 16.6668 26.9711 16.1801 27.238C15.6934 27.505 15.4934 28.1471 15.7401 28.6738C15.9868 29.2005 16.5801 29.417 17.0668 29.15Z" fill="#0033AD"/>
<path d="M23.0667 19.7777C22.5601 20.6219 22.7734 21.7474 23.5534 22.2957C24.3334 22.8441 25.3734 22.6132 25.8801 21.769C26.3867 20.9249 26.1734 19.7994 25.3934 19.251C25.1201 19.0562 24.8001 18.9552 24.4734 18.9552C23.9067 18.9552 23.3801 19.2654 23.0667 19.7777Z" fill="#0033AD"/>
<path d="M25.9934 27.3968C25.5734 26.4949 24.5601 26.1341 23.7334 26.5887C22.9 27.0432 22.5667 28.1399 22.9867 29.0346C23.4067 29.9365 24.4201 30.2972 25.2467 29.8427C26.0734 29.3953 26.4134 28.3131 26.0001 27.4112C26.0001 27.404 26.0001 27.404 25.9934 27.3968Z" fill="#0033AD"/>
<path d="M28.9335 27.2669C28.4735 26.9423 27.8601 27.0794 27.5668 27.5772C27.2668 28.075 27.3935 28.7388 27.8535 29.0563C28.3135 29.3809 28.9268 29.2439 29.2201 28.746C29.5201 28.2554 29.3935 27.5916 28.9335 27.2669Z" fill="#0033AD"/>
<path d="M32.1602 24.5324C32.1868 24.0274 31.8335 23.6017 31.3668 23.5728C30.9002 23.544 30.5068 23.9264 30.4802 24.4314C30.4535 24.9365 30.8068 25.3621 31.2735 25.391C31.7335 25.4199 32.1335 25.0303 32.1602 24.5324Z" fill="#0033AD"/>
<path d="M34.4867 23.8831C34.1867 23.8615 33.9267 24.114 33.9134 24.4387C33.9001 24.7634 34.1267 25.0447 34.4267 25.0592C34.7267 25.0808 34.9801 24.8283 35.0001 24.5036C35.0134 24.1789 34.7867 23.9048 34.4867 23.8831Z" fill="#0033AD"/>
<path d="M32.2934 29.7273C31.9734 29.5036 31.5467 29.5974 31.3334 29.9437C31.1267 30.29 31.2134 30.7518 31.5334 30.9827C31.8534 31.2063 32.2801 31.1125 32.4934 30.7662C32.7067 30.4199 32.6134 29.9509 32.2934 29.7273Z" fill="#0033AD"/>
<path d="M16.84 35.2251C16.5866 35.0448 16.2533 35.1241 16.0866 35.3911C15.92 35.6653 15.9933 36.026 16.24 36.2064C16.4933 36.3867 16.8266 36.3074 16.9933 36.0404C17.1666 35.7735 17.0933 35.4055 16.84 35.2251Z" fill="#0033AD"/>
<path d="M28.2535 35.1673C27.9868 35.3116 27.8801 35.6723 28.0135 35.9609C28.1468 36.2495 28.4801 36.365 28.7468 36.2207C29.0134 36.0764 29.1201 35.7228 28.9868 35.4342C28.8534 35.1384 28.5268 35.0158 28.2535 35.1673C28.2601 35.1673 28.2535 35.1673 28.2535 35.1673Z" fill="#0033AD"/>
<path d="M21.9334 29.2222C22.4401 28.3781 22.2267 27.2525 21.4467 26.697C20.6667 26.1486 19.6267 26.3795 19.1134 27.2237C18.6 28.0678 18.82 29.1934 19.6 29.7489C19.8734 29.9437 20.1934 30.0447 20.52 30.0447C21.0934 30.052 21.62 29.7417 21.9334 29.2222Z" fill="#0033AD"/>
<path d="M18.5668 32.0144C18.1801 31.7403 17.6534 31.8557 17.4001 32.2742C17.1468 32.6927 17.2534 33.2626 17.6401 33.5368C18.0268 33.811 18.5534 33.6956 18.8068 33.2771C19.0668 32.8586 18.9601 32.2886 18.5668 32.0144Z" fill="#0033AD"/>
<path d="M22.4935 35.4992C22.1135 35.4776 21.7869 35.795 21.7602 36.2063C21.7335 36.6175 22.0335 36.9711 22.4135 36.9999C22.7935 37.0216 23.1202 36.7113 23.1469 36.3001C23.1669 35.8816 22.8735 35.5281 22.4935 35.4992Z" fill="#0033AD"/>
<path d="M22.5001 30.7878C21.9534 30.7517 21.4868 31.2062 21.4601 31.7979C21.4268 32.3895 21.8468 32.8946 22.3934 32.9234C22.9401 32.9523 23.4068 32.505 23.4334 31.9133C23.4668 31.3289 23.0468 30.8166 22.5001 30.7878Z" fill="#0033AD"/>
<path d="M26.5468 31.9423C26.1335 32.1732 25.9668 32.7215 26.1802 33.1688C26.3935 33.6162 26.9002 33.7965 27.3135 33.5657C27.7268 33.342 27.8935 32.7937 27.6868 32.3463C27.4735 31.899 26.9668 31.7114 26.5468 31.9423Z" fill="#0033AD"/>
</g>
</g>
<defs>
<filter id="filter0_d_280_37" x="-1772" y="-1035" width="2248" height="1145" filterUnits="userSpaceOnUse" color-interpolation-filters="sRGB">
<feFlood flood-opacity="0" result="BackgroundImageFix"/>
<feColorMatrix in="SourceAlpha" type="matrix" values="0 0 0 0 0 0 0 0 0 0 0 0 0 0 0 0 0 0 127 0" result="hardAlpha"/>
<feOffset dy="4"/>
<feGaussianBlur stdDeviation="2"/>
<feComposite in2="hardAlpha" operator="out"/>
<feColorMatrix type="matrix" values="0 0 0 0 0 0 0 0 0 0 0 0 0 0 0 0 0 0 0.25 0"/>
<feBlend mode="normal" in2="BackgroundImageFix" result="effect1_dropShadow_280_37"/>
<feBlend mode="normal" in="SourceGraphic" in2="effect1_dropShadow_280_37" result="shape"/>
</filter>
<filter id="filter1_d_280_37" x="-1378" y="-847" width="1460" height="1002" filterUnits="userSpaceOnUse" color-interpolation-filters="sRGB">
<feFlood flood-opacity="0" result="BackgroundImageFix"/>
<feColorMatrix in="SourceAlpha" type="matrix" values="0 0 0 0 0 0 0 0 0 0 0 0 0 0 0 0 0 0 127 0" result="hardAlpha"/>
<feOffset/>
<feGaussianBlur stdDeviation="5"/>
<feComposite in2="hardAlpha" operator="out"/>
<feColorMatrix type="matrix" values="0 0 0 0 0.101961 0 0 0 0 0.101961 0 0 0 0 0.101961 0 0 0 0.25 0"/>
<feBlend mode="normal" in2="BackgroundImageFix" result="effect1_dropShadow_280_37"/>
<feBlend mode="normal" in="SourceGraphic" in2="effect1_dropShadow_280_37" result="shape"/>
</filter>
<linearGradient id="paint0_linear_280_37" x1="400.443" y1="-769.902" x2="-1886.87" y2="-379.776" gradientUnits="userSpaceOnUse">
<stop stop-color="#3F3D56"/>
<stop offset="1" stop-color="#20294C"/>
<stop offset="1" stop-color="#243B55"/>
</linearGradient>
<linearGradient id="paint1_linear_280_37" x1="48.1849" y1="1.56099" x2="-10.2591" y2="6.04223" gradientUnits="userSpaceOnUse">
<stop stop-color="#3F3D56"/>
<stop offset="1" stop-color="#20294C"/>
<stop offset="1" stop-color="#243B55"/>
</linearGradient>
<clipPath id="clip0_280_37">
<rect width="1920" height="4870" fill="white" transform="translate(-1608 -2300)"/>
</clipPath>
<clipPath id="clip1_280_37">
<rect width="25" height="25" fill="white" transform="translate(10 12)"/>
</clipPath>
</defs>
</svg>
