<svg width="44" height="50" viewBox="0 0 44 50" fill="none" xmlns="http://www.w3.org/2000/svg">
<rect width="44" height="50" fill="#E5E5E5"/>
<g clip-path="url(#clip0_280_37)">
<rect width="1920" height="4870" transform="translate(-1608 -1740)" fill="#020A31"/>
<g filter="url(#filter0_d_280_37)">
<path d="M-1649 280C-1649 -51.3708 -1380.37 -320 -1049 -320H-247C84.3708 -320 353 -51.3708 353 280V315C353 370.228 308.228 415 253 415H-1549C-1604.23 415 -1649 370.228 -1649 315V280Z" fill="url(#paint0_linear_280_37)"/>
<path d="M-1649 362C-1649 30.6292 -1380.37 -238 -1049 -238H-247C84.3708 -238 353 30.6292 353 362V562C353 617.228 308.228 662 253 662H-1549C-1604.23 662 -1649 617.228 -1649 562V362Z" fill="url(#paint1_linear_280_37)"/>
</g>
<g filter="url(#filter1_d_280_37)">
<rect x="-1368" y="-277" width="1440" height="982" rx="20" fill="white"/>
</g>
<rect x="-1368" y="-15" width="1440" height="80" fill="#F2F4F8"/>
<path d="M19.5 1.44338C21.047 0.550212 22.953 0.550212 24.5 1.44338L41.1506 11.0566C42.6976 11.9498 43.6506 13.6004 43.6506 15.3868V34.6132C43.6506 36.3996 42.6976 38.0502 41.1506 38.9434L24.5 48.5566C22.953 49.4498 21.047 49.4498 19.5 48.5566L2.84937 38.9434C1.30236 38.0502 0.349365 36.3996 0.349365 34.6132V15.3868C0.349365 13.6004 1.30236 11.9498 2.84936 11.0566L19.5 1.44338Z" fill="url(#paint2_linear_280_37)"/>
<path d="M19.5 6.44338C21.047 5.55021 22.953 5.55021 24.5 6.44338L36.8205 13.5566C38.3675 14.4498 39.3205 16.1004 39.3205 17.8868V32.1132C39.3205 33.8996 38.3675 35.5502 36.8205 36.4434L24.5 43.5566C22.953 44.4498 21.047 44.4498 19.5 43.5566L7.17949 36.4434C5.63249 35.5502 4.67949 33.8996 4.67949 32.1132V17.8868C4.67949 16.1004 5.63249 14.4498 7.17949 13.5566L19.5 6.44338Z" fill="#627EEA"/>
<path d="M22.498 13V21.87L29.995 25.22L22.498 13Z" fill="white" fill-opacity="0.602"/>
<path d="M22.498 13L15 25.22L22.498 21.87V13Z" fill="white"/>
<path d="M22.498 30.968V36.995L30 26.616L22.498 30.968Z" fill="white" fill-opacity="0.602"/>
<path d="M22.498 36.995V30.967L15 26.616L22.498 36.995Z" fill="white"/>
<path d="M22.498 29.5729L29.995 25.2199L22.498 21.8719V29.5729Z" fill="white" fill-opacity="0.2"/>
<path d="M15 25.2199L22.498 29.5729V21.8719L15 25.2199Z" fill="white" fill-opacity="0.602"/>
</g>
<defs>
<filter id="filter0_d_280_37" x="-1772" y="-475" width="2248" height="1145" filterUnits="userSpaceOnUse" color-interpolation-filters="sRGB">
<feFlood flood-opacity="0" result="BackgroundImageFix"/>
<feColorMatrix in="SourceAlpha" type="matrix" values="0 0 0 0 0 0 0 0 0 0 0 0 0 0 0 0 0 0 127 0" result="hardAlpha"/>
<feOffset dy="4"/>
<feGaussianBlur stdDeviation="2"/>
<feComposite in2="hardAlpha" operator="out"/>
<feColorMatrix type="matrix" values="0 0 0 0 0 0 0 0 0 0 0 0 0 0 0 0 0 0 0.25 0"/>
<feBlend mode="normal" in2="BackgroundImageFix" result="effect1_dropShadow_280_37"/>
<feBlend mode="normal" in="SourceGraphic" in2="effect1_dropShadow_280_37" result="shape"/>
</filter>
<filter id="filter1_d_280_37" x="-1378" y="-287" width="1460" height="1002" filterUnits="userSpaceOnUse" color-interpolation-filters="sRGB">
<feFlood flood-opacity="0" result="BackgroundImageFix"/>
<feColorMatrix in="SourceAlpha" type="matrix" values="0 0 0 0 0 0 0 0 0 0 0 0 0 0 0 0 0 0 127 0" result="hardAlpha"/>
<feOffset/>
<feGaussianBlur stdDeviation="5"/>
<feComposite in2="hardAlpha" operator="out"/>
<feColorMatrix type="matrix" values="0 0 0 0 0.101961 0 0 0 0 0.101961 0 0 0 0 0.101961 0 0 0 0.25 0"/>
<feBlend mode="normal" in2="BackgroundImageFix" result="effect1_dropShadow_280_37"/>
<feBlend mode="normal" in="SourceGraphic" in2="effect1_dropShadow_280_37" result="shape"/>
</filter>
<linearGradient id="paint0_linear_280_37" x1="-1649" y1="415" x2="-1105.84" y2="-821.288" gradientUnits="userSpaceOnUse">
<stop stop-color="#F9BC1A"/>
<stop offset="0.508333" stop-color="#FFCA3E"/>
<stop offset="1" stop-color="#FFCE4C"/>
</linearGradient>
<linearGradient id="paint1_linear_280_37" x1="400.443" y1="-209.902" x2="-1886.87" y2="180.224" gradientUnits="userSpaceOnUse">
<stop stop-color="#3F3D56"/>
<stop offset="1" stop-color="#20294C"/>
<stop offset="1" stop-color="#243B55"/>
</linearGradient>
<linearGradient id="paint2_linear_280_37" x1="48.1849" y1="1.56099" x2="-10.2591" y2="6.04223" gradientUnits="userSpaceOnUse">
<stop stop-color="#3F3D56"/>
<stop offset="1" stop-color="#20294C"/>
<stop offset="1" stop-color="#243B55"/>
</linearGradient>
<clipPath id="clip0_280_37">
<rect width="1920" height="4870" fill="white" transform="translate(-1608 -1740)"/>
</clipPath>
</defs>
</svg>
