<svg width="43" height="50" viewBox="0 0 43 50" fill="none" xmlns="http://www.w3.org/2000/svg">
<mask id="mask0_912_438" style="mask-type:alpha" maskUnits="userSpaceOnUse" x="0" y="0" width="43" height="50">
<path d="M0 0.5H43V49.5H0V0.5Z" fill="#C4C4C4"/>
</mask>
<g mask="url(#mask0_912_438)">
<path d="M18.962 1.4952C20.5282 0.57251 22.4718 0.57251 24.038 1.4952L40.2556 11.0495C41.7812 11.9483 42.7176 13.5869 42.7176 15.3575V34.6425C42.7176 36.4131 41.7812 38.0517 40.2556 38.9505L24.038 48.5048C22.4718 49.4275 20.5282 49.4275 18.962 48.5048L2.7444 38.9505C1.21883 38.0517 0.282377 36.4131 0.282377 34.6425V15.3575C0.282377 13.5869 1.21884 11.9483 2.7444 11.0495L18.962 1.4952Z" fill="url(#paint0_linear_912_438)"/>
<path d="M19.5 6.44338C21.047 5.55021 22.953 5.55021 24.5 6.44338L36.8205 13.5566C38.3675 14.4498 39.3205 16.1004 39.3205 17.8868V32.1132C39.3205 33.8996 38.3675 35.5502 36.8205 36.4434L24.5 43.5566C22.953 44.4498 21.047 44.4498 19.5 43.5566L7.17949 36.4434C5.63249 35.5502 4.67949 33.8996 4.67949 32.1132V17.8868C4.67949 16.1004 5.63249 14.4498 7.17949 13.5566L19.5 6.44338Z" fill="#434165"/>
<path d="M20.5177 31.6912C21.1879 34.1692 23.5925 36.0612 24.806 35.9829C24.8487 35.9805 29.411 35.13 31.9081 30.9557C33.8523 27.7091 33.1904 24.5739 30.5463 24.5051C29.5961 24.5763 19.2413 26.9677 20.5177 31.6912ZM30.3007 15.7686L30.2983 15.7663L30.3019 15.7639C28.2058 13.9751 25.5379 12.9941 22.7823 13C21.1049 13 19.513 13.3594 18.074 14C17.8154 14.1091 17.5699 14.2289 17.3398 14.3606C17.176 14.4484 17.0135 14.5338 16.8558 14.6287L16.8949 14.6406C16.4275 14.9585 16.0135 15.3499 15.6707 15.7995C12.3397 20.1992 23.5023 23.396 29.4703 23.4079C32.2129 25.3758 32.9852 17.8564 30.3007 15.7686Z" fill="#5493F7"/>
<path d="M18.746 15.8575C17.2133 18.1624 12.1054 19.7863 11.2655 19.5324L11.2607 19.5218C11.2951 19.4518 11.3307 19.383 11.3651 19.3142C11.944 18.1968 12.6914 17.1754 13.5822 16.2869C14.3023 15.5669 15.1089 14.9394 15.9832 14.4175C16.6985 14.0035 17.4304 13.9762 17.6712 13.9679C19.9476 14.0142 18.759 15.8397 18.746 15.8575Z" fill="white"/>
<mask id="mask1_912_438" style="mask-type:alpha" maskUnits="userSpaceOnUse" x="10" y="20" width="8" height="16">
<path d="M10 20.704H17.5327V35.9729H10V20.704V20.704Z" fill="white"/>
</mask>
<g mask="url(#mask1_912_438)">
<path d="M17.489 32.1448C17.5981 32.8696 17.4866 35.7295 17.3372 35.9703C17.2102 35.9786 16.9445 35.9953 16.1746 35.5635C15.2256 35.0226 14.3538 34.3559 13.5815 33.5837C12.6918 32.694 11.9433 31.6727 11.3644 30.5565C10.4641 28.8198 9.99548 26.8922 9.99904 24.9362C9.99904 24.2612 10.0536 23.5981 10.1592 22.9528C10.2837 22.1865 10.483 21.4333 10.7511 20.705C11.6337 21.8769 12.6539 22.9386 13.521 24.1224C14.3466 25.2505 15.4831 27.088 15.7132 27.4818C17.1509 29.9171 17.3799 31.4224 17.489 32.1448Z" fill="white"/>
</g>
<path d="M34.4569 24.9345C34.4569 26.5204 34.1544 28.0352 33.6052 29.4255C32.1651 30.9747 22.4545 27.1634 22.3584 27.1219C21.031 26.5394 16.987 24.7696 16.6229 21.9867C16.0985 17.9844 24.2184 15.1957 27.7866 15.0901C28.2149 15.0948 29.5162 15.1103 30.2766 15.7271C32.9362 18.0473 34.4605 21.4055 34.4569 24.9345ZM27.8827 35.7812C26.8234 36.2747 25.6585 35.9153 25.961 34.8844C26.5423 32.9046 31.6182 30.875 32.7404 30.7647C32.8792 30.7517 32.9373 30.8454 32.8757 30.9533C31.7072 33.0067 29.9753 34.6828 27.8827 35.7812Z" fill="white"/>
</g>
<defs>
<linearGradient id="paint0_linear_912_438" x1="47.1612" y1="1.56099" x2="-10.1272" y2="5.86577" gradientUnits="userSpaceOnUse">
<stop stop-color="#3F3D56"/>
<stop offset="1" stop-color="#20294C"/>
<stop offset="1" stop-color="#243B55"/>
</linearGradient>
</defs>
</svg>
