<svg width="44" height="50" viewBox="0 0 44 50" fill="none" xmlns="http://www.w3.org/2000/svg">
<rect width="44" height="50" fill="#E5E5E5"/>
<g clip-path="url(#clip0_280_37)">
<rect width="1920" height="4870" transform="translate(-1608 -1980)" fill="#020A31"/>
<g filter="url(#filter0_d_280_37)">
<path d="M-1649 40C-1649 -291.371 -1380.37 -560 -1049 -560H-247C84.3708 -560 353 -291.371 353 40V75C353 130.228 308.228 175 253 175H-1549C-1604.23 175 -1649 130.228 -1649 75V40Z" fill="url(#paint0_linear_280_37)"/>
<path d="M-1649 122C-1649 -209.371 -1380.37 -478 -1049 -478H-247C84.3708 -478 353 -209.371 353 122V322C353 377.228 308.228 422 253 422H-1549C-1604.23 422 -1649 377.228 -1649 322V122Z" fill="url(#paint1_linear_280_37)"/>
</g>
<g filter="url(#filter1_d_280_37)">
<rect x="-1368" y="-517" width="1440" height="982" rx="20" fill="white"/>
</g>
<path d="M19.5 1.44338C21.047 0.550212 22.953 0.550212 24.5 1.44338L41.1506 11.0566C42.6976 11.9498 43.6506 13.6004 43.6506 15.3868V34.6132C43.6506 36.3996 42.6976 38.0502 41.1506 38.9434L24.5 48.5566C22.953 49.4498 21.047 49.4498 19.5 48.5566L2.84937 38.9434C1.30236 38.0502 0.349365 36.3996 0.349365 34.6133V15.3868C0.349365 13.6004 1.30236 11.9498 2.84936 11.0566L19.5 1.44338Z" fill="url(#paint2_linear_280_37)"/>
<path d="M19.5 6.44338C21.047 5.55021 22.953 5.55021 24.5 6.44338L36.8205 13.5566C38.3675 14.4498 39.3205 16.1004 39.3205 17.8868V32.1132C39.3205 33.8996 38.3675 35.5502 36.8205 36.4434L24.5 43.5566C22.953 44.4498 21.047 44.4498 19.5 43.5566L7.17949 36.4434C5.63249 35.5502 4.67949 33.8996 4.67949 32.1132V17.8868C4.67949 16.1004 5.63249 14.4498 7.17949 13.5566L19.5 6.44338Z" fill="#2775C9"/>
<path d="M22 40C13.7149 40 7 33.2851 7 25C7 16.7149 13.7149 10 22 10C30.2851 10 37 16.7149 37 25C37 28.9782 35.4196 32.7936 32.6066 35.6066C29.7936 38.4196 25.9782 40 22 40ZM21.1064 19.434C20.2857 19.4747 19.5098 19.8208 18.9311 20.4042C18.3524 20.9876 18.0127 21.7662 17.9787 22.5872C17.9787 24.1319 18.9234 25.1404 20.9277 25.5617L22.3319 25.8936C23.6979 26.2128 24.2596 26.6723 24.2596 27.4511C24.2596 28.2298 23.2766 28.9957 22 28.9957C21.5466 29.0373 21.0906 28.9504 20.6842 28.745C20.2778 28.5395 19.9375 28.2238 19.7021 27.834C19.6324 27.6861 19.5223 27.5609 19.3845 27.4728C19.2468 27.3848 19.0869 27.3374 18.9234 27.3362H18.1702C18.1123 27.3469 18.0571 27.369 18.0077 27.4011C17.9584 27.4333 17.9158 27.4749 17.8826 27.5235C17.8494 27.5722 17.8261 27.6269 17.8141 27.6846C17.8021 27.7422 17.8017 27.8017 17.8128 27.8596C17.9962 28.6084 18.4228 29.2752 19.0257 29.7557C19.6286 30.2361 20.3738 30.5032 21.1447 30.5149V31.5872C21.1447 31.8259 21.2395 32.0548 21.4083 32.2236C21.5771 32.3924 21.806 32.4872 22.0447 32.4872C22.2834 32.4872 22.5123 32.3924 22.6811 32.2236C22.8499 32.0548 22.9447 31.8259 22.9447 31.5872V30.5021C23.8163 30.4922 24.6497 30.1425 25.2672 29.5273C25.8848 28.9121 26.2378 28.0801 26.2511 27.2085C26.2511 25.5872 25.3191 24.6553 23.1106 24.183L21.834 23.9021C20.5574 23.583 19.9574 23.1617 19.9574 22.4468C19.9574 21.7319 20.7234 20.9404 22 20.9404C22.402 20.8984 22.8077 20.9737 23.1678 21.1572C23.528 21.3407 23.8274 21.6246 24.0298 21.9745C24.1118 22.1492 24.2417 22.2971 24.4044 22.4011C24.5671 22.505 24.7559 22.5607 24.9489 22.5617H25.5489C25.6854 22.5283 25.8032 22.4428 25.8772 22.3234C25.9512 22.2041 25.9755 22.0604 25.9447 21.9234C25.7717 21.232 25.3849 20.613 24.8393 20.1545C24.2937 19.696 23.6172 19.4215 22.9064 19.3702V18.4894C22.9064 18.2507 22.8116 18.0217 22.6428 17.853C22.474 17.6842 22.2451 17.5894 22.0064 17.5894C21.7677 17.5894 21.5388 17.6842 21.37 17.853C21.2012 18.0217 21.1064 18.2507 21.1064 18.4894V19.434ZM10.7532 25C10.7547 27.3516 11.4949 29.6433 12.8693 31.5514C14.2437 33.4595 16.1828 34.8876 18.4128 35.634H18.5915C18.7438 35.634 18.89 35.5735 18.9977 35.4658C19.1054 35.3581 19.166 35.2119 19.166 35.0596V34.7915C19.1664 34.5539 19.0962 34.3214 18.9644 34.1237C18.8326 33.926 18.645 33.7719 18.4255 33.6808C16.6889 32.9799 15.2013 31.7759 14.1538 30.2234C13.1062 28.671 12.5466 26.8409 12.5466 24.9681C12.5466 23.0953 13.1062 21.2652 14.1538 19.7127C15.2013 18.1603 16.6889 16.9563 18.4255 16.2553C18.644 16.1666 18.8312 16.0147 18.963 15.8192C19.0949 15.6237 19.1655 15.3933 19.166 15.1574V14.8638C19.1668 14.7776 19.1468 14.6925 19.1077 14.6156C19.0686 14.5388 19.0116 14.4725 18.9415 14.4224C18.8713 14.3723 18.7901 14.3398 18.7047 14.3278C18.6194 14.3157 18.5323 14.3244 18.4511 14.3532C16.2119 15.0937 14.2629 16.521 12.8811 18.4322C11.4992 20.3435 10.7547 22.6415 10.7532 25ZM33.2468 25C33.2427 22.6506 32.5012 20.3618 31.127 18.4562C29.7528 16.5506 27.8151 15.1244 25.5872 14.3787H25.3957C25.2366 14.3787 25.084 14.4419 24.9715 14.5545C24.859 14.667 24.7957 14.8196 24.7957 14.9787V15.1702C24.8009 15.4164 24.8771 15.6559 25.0153 15.8598C25.1535 16.0636 25.3477 16.2232 25.5745 16.3191C27.3072 17.0222 28.7907 18.2262 29.8352 19.7772C30.8797 21.3282 31.4377 23.1556 31.4377 25.0255C31.4377 26.8954 30.8797 28.7228 29.8352 30.2738C28.7907 31.8248 27.3072 33.0289 25.5745 33.7319C25.352 33.8289 25.1618 33.9873 25.0261 34.1885C24.8905 34.3898 24.815 34.6255 24.8085 34.8681V35.0851C24.8096 35.1797 24.8331 35.2728 24.877 35.3566C24.9209 35.4405 24.984 35.5127 25.0612 35.5675C25.1384 35.6223 25.2275 35.658 25.3211 35.6718C25.4147 35.6856 25.5103 35.677 25.6 35.6468C27.8297 34.8975 29.7675 33.4665 31.1397 31.5561C32.5118 29.6456 33.2489 27.3522 33.2468 25Z" fill="white"/>
</g>
<defs>
<filter id="filter0_d_280_37" x="-1772" y="-715" width="2248" height="1145" filterUnits="userSpaceOnUse" color-interpolation-filters="sRGB">
<feFlood flood-opacity="0" result="BackgroundImageFix"/>
<feColorMatrix in="SourceAlpha" type="matrix" values="0 0 0 0 0 0 0 0 0 0 0 0 0 0 0 0 0 0 127 0" result="hardAlpha"/>
<feOffset dy="4"/>
<feGaussianBlur stdDeviation="2"/>
<feComposite in2="hardAlpha" operator="out"/>
<feColorMatrix type="matrix" values="0 0 0 0 0 0 0 0 0 0 0 0 0 0 0 0 0 0 0.25 0"/>
<feBlend mode="normal" in2="BackgroundImageFix" result="effect1_dropShadow_280_37"/>
<feBlend mode="normal" in="SourceGraphic" in2="effect1_dropShadow_280_37" result="shape"/>
</filter>
<filter id="filter1_d_280_37" x="-1378" y="-527" width="1460" height="1002" filterUnits="userSpaceOnUse" color-interpolation-filters="sRGB">
<feFlood flood-opacity="0" result="BackgroundImageFix"/>
<feColorMatrix in="SourceAlpha" type="matrix" values="0 0 0 0 0 0 0 0 0 0 0 0 0 0 0 0 0 0 127 0" result="hardAlpha"/>
<feOffset/>
<feGaussianBlur stdDeviation="5"/>
<feComposite in2="hardAlpha" operator="out"/>
<feColorMatrix type="matrix" values="0 0 0 0 0.101961 0 0 0 0 0.101961 0 0 0 0 0.101961 0 0 0 0.25 0"/>
<feBlend mode="normal" in2="BackgroundImageFix" result="effect1_dropShadow_280_37"/>
<feBlend mode="normal" in="SourceGraphic" in2="effect1_dropShadow_280_37" result="shape"/>
</filter>
<linearGradient id="paint0_linear_280_37" x1="-1649" y1="175" x2="-1105.84" y2="-1061.29" gradientUnits="userSpaceOnUse">
<stop stop-color="#F9BC1A"/>
<stop offset="0.508333" stop-color="#FFCA3E"/>
<stop offset="1" stop-color="#FFCE4C"/>
</linearGradient>
<linearGradient id="paint1_linear_280_37" x1="400.443" y1="-449.902" x2="-1886.87" y2="-59.7756" gradientUnits="userSpaceOnUse">
<stop stop-color="#3F3D56"/>
<stop offset="1" stop-color="#20294C"/>
<stop offset="1" stop-color="#243B55"/>
</linearGradient>
<linearGradient id="paint2_linear_280_37" x1="48.1849" y1="1.56099" x2="-10.2591" y2="6.04223" gradientUnits="userSpaceOnUse">
<stop stop-color="#3F3D56"/>
<stop offset="1" stop-color="#20294C"/>
<stop offset="1" stop-color="#243B55"/>
</linearGradient>
<clipPath id="clip0_280_37">
<rect width="1920" height="4870" fill="white" transform="translate(-1608 -1980)"/>
</clipPath>
</defs>
</svg>
